<?xml version="1.0" encoding="UTF-8"?>
<svg width="1200pt" height="1200pt" version="1.1" viewBox="0 0 1200 1200" xmlns="http://www.w3.org/2000/svg">
 <path d="m1129.5 367.03-175.13-320.16c-2.7656-5.0625-7.4531-8.8594-13.031-10.547-5.625-1.5938-11.625-0.9375-16.734 1.8281l-83.344 45.609c-10.594 5.7656-14.531 19.172-8.7188 29.766l13.688 25.031-315.37 172.45c-5.1094 2.7656-8.8594 7.5469-10.547 13.078-1.5938 5.5781-0.9375 11.625 1.8281 16.688l16.969 31.078-315.1 172.26c-5.1094 2.8594-8.8594 7.5469-10.547 13.078-1.5938 5.625-0.9375 11.625 1.8281 16.734l9.1406 16.734-145.18 79.406c-5.1094 2.7656-8.9062 7.4531-10.547 13.078-1.6875 5.5781-1.0312 11.531 1.8281 16.688l32.25 59.062c4.0312 7.3125 11.531 11.391 19.312 11.391 3.5625 0 7.1719-0.89062 10.547-2.7188l145.22-79.406 9.1406 16.734c3.9375 7.3125 11.484 11.484 19.219 11.484 3.5625 0 7.1719-0.89062 10.547-2.7188l239.34-130.87c8.7188 12.891 20.25 23.625 33.797 31.312l-183.56 530.95c-2.625 7.5938 1.4062 15.938 9.0469 18.562 1.5938 0.51562 3.2344 0.79688 4.7344 0.79688 6.0469 0 11.719-3.7969 13.828-9.8906l183.19-530.02c2.3438 0.51562 4.7344 0.9375 7.1719 1.3125v523.87c0 8.0625 6.5625 14.625 14.625 14.625s14.625-6.5625 14.625-14.625v-523.69c1.9688-0.28125 3.9375-0.5625 5.7656-1.0312l182.16 529.64c2.1094 6.0469 7.7344 9.8906 13.828 9.8906 1.5938 0 3.2344-0.28125 4.7344-0.79687 7.5938-2.625 11.719-10.969 9.0469-18.562l-182.39-530.29c24.562-13.547 42.938-37.078 49.266-65.156l257.76-141 13.688 25.031c4.0312 7.2188 11.484 11.391 19.312 11.391 3.5156 0 7.1719-0.89062 10.453-2.7188l83.438-45.609c5.0625-2.7656 8.8594-7.4531 10.547-13.078 1.5938-5.5781 0.9375-11.531-1.8281-16.688zm-998.68 351.66-11.25-20.625 125.9-68.906 11.344 20.625zm409.45-177.19-225.28 123.24-7.5938-13.875c-0.375-1.0312-0.79688-2.0625-1.3125-3l-32.344-59.062c-0.5625-1.0781-1.2656-2.1094-1.9688-3l-7.4531-13.594 295.87-161.81 19.969 36.562c-24.797 18.188-40.875 47.531-40.875 80.531 0 4.8281 0.375 9.5156 1.0312 14.109zm166.97 3.7969c-7.9688 30.188-35.531 52.594-68.25 52.594-9.2812 0-18.141-1.7344-26.25-5.0625-13.875-5.625-25.688-15.562-33.562-28.172-5.2031-8.25-8.7188-17.719-10.031-27.797-0.42188-3.0938-0.65625-6.2812-0.65625-9.5156 0-24 12.047-45.281 30.516-57.984 8.0625-5.5781 17.344-9.5156 27.281-11.344 4.0781-0.79688 8.3906-1.1719 12.703-1.1719 34.969 0 63.984 25.594 69.562 58.922 0.65625 3.75 0.9375 7.5938 0.9375 11.531 0 6.2344-0.79688 12.234-2.25 17.906zm27.797-44.953c-11.859-41.906-50.391-72.703-96-72.703-6.1406 0-12.234 0.5625-18.047 1.6875l-32.531-59.438c-0.5625-1.0312-1.2656-2.0625-1.9688-3l-15.281-27.844 296.16-161.95 105.61 193.22-237.89 130.08zm300.61-106.97-13.688-24.938-126.74-231.66-13.688-25.031 44.906-24.562 153.98 281.68-44.812 24.516z"/>
 <path d="m733.08 462.98c2.625 4.9219 7.6875 7.6875 12.891 7.6875 2.3438 0 4.6875-0.5625 6.8906-1.7344l175.08-94.031c7.0781-3.7969 9.7969-12.703 6-19.828-3.7969-7.0781-12.703-9.7969-19.828-6l-175.08 94.031c-7.0781 3.7969-9.7969 12.703-6 19.828z"/>
 <path d="m638.95 478.69c-26.859 0-48.703 21.844-48.703 48.703s21.844 48.703 48.703 48.703 48.703-21.844 48.703-48.703-21.844-48.703-48.703-48.703zm0 68.062c-10.688 0-19.453-8.7188-19.453-19.453s8.7188-19.453 19.453-19.453 19.453 8.7188 19.453 19.453-8.7188 19.453-19.453 19.453z"/>
</svg>
