<?xml version="1.0" encoding="UTF-8"?>
<svg width="1200pt" height="1200pt" version="1.1" viewBox="0 0 1200 1200" xmlns="http://www.w3.org/2000/svg">
 <path d="m826.22 723.05c-33.469 0-63.656 20.156-76.5 51.094-12.797 30.938-5.7188 66.562 17.953 90.234s59.297 30.75 90.234 17.953c30.938-12.844 51.094-43.031 51.094-76.5-0.046875-45.703-37.078-82.734-82.781-82.781zm0 128.06c-18.328 0-34.828-11.062-41.859-27.984-6.9844-16.922-3.0938-36.375 9.8438-49.312 12.938-12.984 32.438-16.828 49.359-9.8438 16.922 7.0312 27.938 23.531 27.938 41.859-0.046875 24.984-20.297 45.234-45.281 45.281z"/>
 <path d="m161.63 1184.1h899.34c6.6094 0 12.703-3.4688 16.078-9.0938l72.703-120.74c3.5156-5.7656 3.6094-12.984 0.28125-18.891s-9.5625-9.5625-16.312-9.5156h-156.1v-216.84c0.46875-53.156-27.609-102.47-73.5-129.19v-14.859c-0.09375-97.547-38.906-191.11-107.91-260.11s-162.56-107.81-260.16-107.91h-121.5v-96.938c-0.046876-28.828-23.438-52.219-52.266-52.219h-0.98437l-14.672-115.41h-0.046874c-1.1719-9.375-9.1406-16.406-18.562-16.406h-116.95c-9.4219 0-17.391 7.0312-18.609 16.406l-14.672 115.41h-0.9375c-28.828 0-52.219 23.391-52.266 52.219v348.28c0.046874 28.828 23.438 52.219 52.266 52.219h0.9375l7.3125 57.375v0.046875c5.3906 42.516 41.578 74.438 84.422 74.438 42.891 0 79.078-31.922 84.469-74.438l7.3125-57.375h0.98437c28.828-0.046875 52.219-23.438 52.266-52.266v-98.625h94.031c61.875 0.09375 121.36 24.188 165.89 67.219 44.484 43.031 70.641 101.62 72.844 163.5-45.047 27.188-72.516 75.984-72.422 128.63v216.84h-186.52v-60.844c0-4.9688-1.9688-9.7031-5.4844-13.219s-8.2969-5.5312-13.266-5.5312h-62.766l-41.25-74.062c-3.3281-6-9.6094-9.7031-16.453-9.6562h-177.94c-6.2344 0-12.047 3.0938-15.516 8.25l-51.141 75.469h-38.297c-10.359 0-18.75 8.3906-18.75 18.75v105c0.09375 63 51.141 114 114.09 114.09zm65.953-1130.6h83.906l12 94.266h-107.86zm89.297 599.72c-3 23.766-23.25 41.625-47.25 41.625s-44.25-17.859-47.25-41.625l-6.75-52.688h107.91zm45.469-90.141-185.48-0.046875c-8.1562 0-14.719-6.6094-14.766-14.719v-348.28c0.046875-8.1094 6.6094-14.719 14.766-14.719h185.44c8.1562 0 14.719 6.6094 14.766 14.719v348.23c0 8.1562-6.6094 14.766-14.766 14.766zm146.26-150.89h-94.031v-77.719h121.55-0.046875c87.375 0.09375 171.14 34.734 233.06 96.375 61.875 61.594 96.938 145.22 97.406 232.6-27.047-7.1719-55.547-6.9844-82.5 0.65625-6.2344-68.812-37.922-132.74-88.922-179.34-50.953-46.594-117.47-72.516-186.52-72.562zm203.81 396.84c-0.14062-43.078 24.188-82.453 62.766-101.58 43.781-22.219 96.938-13.688 131.58 21.094 21.422 21.281 33.469 50.25 33.422 80.484v216.84h-227.76zm-531.24 91.031h156.98l25.734 46.219h-213.98zm-96.141 83.719h365.86v60.844c0 4.9688 1.9688 9.7031 5.4844 13.219s8.2969 5.5312 13.266 5.5312h630.98l-50.156 83.25h-888.84c-42.281-0.09375-76.547-34.359-76.594-76.641z"/>
</svg>
