<?xml version="1.0" encoding="UTF-8"?>
<svg width="1200pt" height="1200pt" version="1.1" viewBox="0 0 1200 1200" xmlns="http://www.w3.org/2000/svg">
 <path d="m458.48 886.96c-114.45 0-222.05-44.566-302.98-125.5-80.938-80.922-125.5-188.52-125.5-302.98 0-114.45 44.566-222.05 125.5-302.98 80.934-80.938 188.54-125.5 302.98-125.5 114.46 0 222.06 44.566 302.98 125.5 80.934 80.934 125.5 188.54 125.5 302.98 0 114.46-44.566 222.06-125.5 302.98-80.926 80.938-188.53 125.5-302.98 125.5zm0-813.48c-102.84 0-199.52 40.043-272.23 112.76-72.719 72.715-112.76 169.4-112.76 272.23 0 102.85 40.043 199.52 112.76 272.23s169.4 112.76 272.23 112.76c102.85 0 199.52-40.043 272.23-112.76s112.76-169.39 112.76-272.23c0-102.84-40.043-199.52-112.76-272.23s-169.39-112.76-272.23-112.76z"/>
 <path d="m715.34 746.09 30.746-30.746 124.52 124.52-30.746 30.746z"/>
 <path d="m1144.6 1144.6c-33.859 33.859-88.758 33.859-122.62 0l-182.12-182.12c-33.859-33.859-33.859-88.758 0-122.62s88.758-33.859 122.62 0l182.12 182.12c33.859 33.859 33.859 88.758 0 122.62z"/>
</svg>
