<?xml version="1.0" encoding="UTF-8"?>
<svg width="1200pt" height="1200pt" version="1.1" viewBox="0 0 1200 1200" xmlns="http://www.w3.org/2000/svg">
 <path d="m714.28 679.48c53.395-61.441 85.719-141.69 85.719-229.48 0-193.3-156.7-350-350-350s-350 156.7-350 350 156.7 350 350 350c87.789 0 168.04-32.324 229.48-85.719 0.83203 1.1953 1.7773 2.332 2.8438 3.3984l50 50c1.7305 1.7266 3.6445 3.1445 5.6836 4.2617-23.07 38.254-18.098 88.68 14.91 121.68l177.64 177.64c38.855 38.859 101.86 38.859 140.71 0 38.859-38.855 38.859-101.86 0-140.71l-177.64-177.64c-33.004-33.008-83.43-37.98-121.68-14.91-1.1172-2.0391-2.5352-3.9531-4.2617-5.6836l-50-50c-1.0664-1.0664-2.2031-2.0117-3.3984-2.8438zm-264.28 70.523c165.68 0 300-134.32 300-300s-134.32-300-300-300-300 134.32-300 300 134.32 300 300 300zm585.91 215.91-177.64-177.64c-19.328-19.336-50.668-19.336-70 0-19.328 19.332-19.328 50.672 0 70l177.64 177.64c19.328 19.328 50.668 19.328 70 0 19.328-19.332 19.328-50.672 0-70z" fill-rule="evenodd"/>
</svg>
