<?xml version="1.0" encoding="UTF-8"?>
<svg width="1200pt" height="1200pt" version="1.1" viewBox="0 0 1200 1200" xmlns="http://www.w3.org/2000/svg">
 <path d="m878.72 487.64c11.391 5.8125 22.5 8.8594 33.094 8.8594 6.375 0 12.562-1.0781 18.422-3.2812l73.969-27.469c51.234-19.031 60.375-117.52 20.766-224.26-39.562-106.73-110.72-175.5-161.95-156.42l-73.969 27.469c-14.625 5.4375-25.969 17.344-33.75 34.312l-322.78 159.74c-14.672 5.7656-24.984 19.641-30.047 40.031l-227.29 106.64c-31.078 11.531-30.328 63.328-13.547 108.52 8.3906 22.688 20.391 42.703 33.75 56.391 14.812 15.188 27.609 19.031 36.656 19.031 4.125 0 7.4531-0.79688 9.8438-1.6875l238.36-70.969c13.734 10.875 27.328 16.5 39.609 16.5 4.5469 0 8.9531-0.75 13.078-2.3438l8.5781-2.25v36.234h-8.4375c-7.3594 0-13.312 5.9531-13.312 13.312v132.79c0 7.3594 5.9531 13.312 13.312 13.312h16.922v88.875c-8.2969 4.9688-15.234 11.906-20.391 20.344l-99.422 162.74c-9 14.719-4.3125 34.031 10.406 42.984 14.719 8.9531 33.984 4.3125 42.984-10.406l66.422-108.75v118.88c0 17.25 14.016 31.266 31.266 31.266s31.266-14.016 31.266-31.266v-118.88l66.422 108.75c5.7656 9.375 15.703 14.953 26.719 14.953 5.7656 0 11.391-1.5938 16.312-4.5938 14.719-9 19.359-28.266 10.406-42.984l-99.422-162.74c-5.1562-8.4375-12.094-15.375-20.391-20.344v-88.875h16.969c7.3594 0 13.312-5.9531 13.312-13.312v-132.79c0-7.3594-5.9531-13.312-13.312-13.312h-8.4375v-57.188zm-6.4688-377.58c31.453-11.625 91.594 43.266 127.74 140.72 36.141 97.453 26.344 178.36-5.0625 189.98-12.984 4.7812-30.797-1.875-49.828-18 3.1406-41.109-5.3438-92.531-24-142.74-18.656-50.25-45.75-94.828-75-123.94 3.9375-24.609 13.078-41.156 26.156-46.031zm23.906 179.26c13.594 36.609 21.469 73.641 22.875 105.94-18.844-23.859-37.266-56.016-51.797-95.203-13.641-36.797-21.422-73.547-22.828-105.94 19.969 25.406 38.156 58.594 51.75 95.203zm-125.68-90.703c2.0625-33.047 12.188-55.312 27.797-61.125l27.656-10.266c-3.5156 9.7969-5.8594 21.141-7.2188 33.703 0 0.14062-0.046875 0.28125-0.046875 0.42188-0.28125 2.7188-0.65625 5.2969-0.84375 8.1562-2.5312 40.922 6.0938 90.609 24.375 139.82 20.203 54.469 48.656 99 78.469 127.03 1.125 1.5469 2.5312 2.8594 4.2188 3.7969 8.0156 7.0781 16.125 13.078 24.141 17.625l-28.078 10.406c-15.609 5.7656-37.828-4.5-60.938-28.219-26.109-26.766-49.828-66.703-66.797-112.55-16.969-45.703-25.078-91.5-22.734-128.81zm-537.1 411.61c-2.9531 1.1719-10.219-1.7344-18.938-10.641-10.641-10.922-20.766-28.078-27.844-47.016-15.188-40.922-10.031-71.344-1.125-74.672l213.79-100.27c-0.23438 27.141 5.5312 58.453 17.109 89.719 10.922 29.391 25.688 55.781 42.281 75.797zm476.16 447.84c1.3125 2.1562 0.65625 5.0156-1.5469 6.375-2.1094 1.2656-5.0625 0.5625-6.3281-1.5469l-91.125-149.21c-3.1406-5.1094-9.2344-7.5-15-5.9062-5.7656 1.6406-9.7031 6.8438-9.7031 12.844v166.26c0 2.5312-2.0625 4.5938-4.5938 4.5938s-4.5938-2.0625-4.5938-4.5938l-0.046875-166.26c0-6-3.9844-11.203-9.75-12.844-5.7188-1.5938-11.859 0.79688-15 5.9062l-91.125 149.21c-1.3125 2.1562-4.1719 2.8594-6.3281 1.5469s-2.8594-4.1719-1.5469-6.3281l99.422-162.74c3.7969-6.2344 9.3281-10.969 16.031-13.688 5.0156-2.0625 8.2969-6.9375 8.2969-12.328v-97.078h9.2344v97.078c0 5.4375 3.2812 10.312 8.2969 12.328 6.6562 2.7188 12.188 7.4531 16.031 13.688zm-93.469-312.56h-69.797v-106.12h69.797zm-47.953-132.74v-43.266l26.203-6.8906v50.203zm-43.266-59.391c-9.1875 3.375-23.297-3.5625-37.969-18.609-17.719-18.188-33.891-45.422-45.469-76.688-11.625-31.266-17.109-62.484-15.562-87.797 1.3125-20.953 7.5469-35.484 16.641-38.859 0.42188-0.14062 0.84375-0.32812 1.2656-0.5625l301.69-149.34c-0.70312 4.9688-1.2656 10.125-1.5938 15.516-2.5312 40.922 6.0938 90.609 24.375 139.82 18.234 49.219 44.062 92.484 72.703 121.87 3.0938 3.1875 6.1875 6.1406 9.2812 8.9062z"/>
</svg>
