<?xml version="1.0" encoding="UTF-8"?>
<svg width="1200pt" height="1200pt" version="1.1" viewBox="0 0 1200 1200" xmlns="http://www.w3.org/2000/svg">
 <path d="m441.14 601.42c0.30078 5.0742 2.2969 9.8984 5.668 13.699l272.06 302.29c3.9453 4.7031 9.6289 7.6055 15.754 8.043s12.164-1.625 16.738-5.7227c4.5742-4.0938 7.293-9.8672 7.5352-16.004 0.23828-6.1328-2.0195-12.105-6.2578-16.547l-258.36-287.17 258.36-287.17v0.003906c4.2383-4.4414 6.4961-10.414 6.2578-16.547-0.24219-6.1367-2.9609-11.91-7.5352-16.004-4.5742-4.0977-10.613-6.1602-16.738-5.7227s-11.809 3.3398-15.754 8.043l-272.06 302.29c-4.0234 4.5312-6.0625 10.484-5.668 16.531z"/>
</svg>
